<mxfile host="Electron" modified="2025-07-28T19:21:43.963Z" agent="Mozilla/5.0 (Windows NT 10.0; Win64; x64) AppleWebKit/537.36 (KHTML, like Gecko) draw.io/21.2.8 Chrome/112.0.5615.165 Electron/24.2.0 Safari/537.36" etag="j4n0GfWhSHmoqe8WwFN2" version="21.2.8" type="device" pages="3">
  <diagram id="C5RBs43oDa-KdzZeNtuy" name="Entidades">
    <mxGraphModel dx="1695" dy="977" grid="1" gridSize="10" guides="1" tooltips="1" connect="1" arrows="1" fold="1" page="1" pageScale="1" pageWidth="827" pageHeight="1169" math="0" shadow="0">
      <root>
        <mxCell id="WIyWlLk6GJQsqaUBKTNV-0" />
        <mxCell id="WIyWlLk6GJQsqaUBKTNV-1" parent="WIyWlLk6GJQsqaUBKTNV-0" />
        <mxCell id="zkfFHV4jXpPFQw0GAbJ--0" value="Cliente" style="swimlane;fontStyle=2;align=center;verticalAlign=top;childLayout=stackLayout;horizontal=1;startSize=26;horizontalStack=0;resizeParent=1;resizeLast=0;collapsible=1;marginBottom=0;rounded=0;shadow=0;strokeWidth=1;" parent="WIyWlLk6GJQsqaUBKTNV-1" vertex="1">
          <mxGeometry x="210" y="60" width="160" height="138" as="geometry">
            <mxRectangle x="230" y="140" width="160" height="26" as="alternateBounds" />
          </mxGeometry>
        </mxCell>
        <mxCell id="zkfFHV4jXpPFQw0GAbJ--1" value="Nome" style="text;align=left;verticalAlign=top;spacingLeft=4;spacingRight=4;overflow=hidden;rotatable=0;points=[[0,0.5],[1,0.5]];portConstraint=eastwest;" parent="zkfFHV4jXpPFQw0GAbJ--0" vertex="1">
          <mxGeometry y="26" width="160" height="26" as="geometry" />
        </mxCell>
        <mxCell id="zkfFHV4jXpPFQw0GAbJ--2" value="NumeroFiscal" style="text;align=left;verticalAlign=top;spacingLeft=4;spacingRight=4;overflow=hidden;rotatable=0;points=[[0,0.5],[1,0.5]];portConstraint=eastwest;rounded=0;shadow=0;html=0;" parent="zkfFHV4jXpPFQw0GAbJ--0" vertex="1">
          <mxGeometry y="52" width="160" height="26" as="geometry" />
        </mxCell>
        <mxCell id="zkfFHV4jXpPFQw0GAbJ--3" value="ID" style="text;align=left;verticalAlign=top;spacingLeft=4;spacingRight=4;overflow=hidden;rotatable=0;points=[[0,0.5],[1,0.5]];portConstraint=eastwest;rounded=0;shadow=0;html=0;" parent="zkfFHV4jXpPFQw0GAbJ--0" vertex="1">
          <mxGeometry y="78" width="160" height="26" as="geometry" />
        </mxCell>
        <mxCell id="zkfFHV4jXpPFQw0GAbJ--4" value="" style="line;html=1;strokeWidth=1;align=left;verticalAlign=middle;spacingTop=-1;spacingLeft=3;spacingRight=3;rotatable=0;labelPosition=right;points=[];portConstraint=eastwest;" parent="zkfFHV4jXpPFQw0GAbJ--0" vertex="1">
          <mxGeometry y="104" width="160" height="8" as="geometry" />
        </mxCell>
        <mxCell id="1BcwRWp8ktFDCWVkO0B7-0" value="Apolice" style="swimlane;fontStyle=2;align=center;verticalAlign=top;childLayout=stackLayout;horizontal=1;startSize=26;horizontalStack=0;resizeParent=1;resizeLast=0;collapsible=1;marginBottom=0;rounded=0;shadow=0;strokeWidth=1;" parent="WIyWlLk6GJQsqaUBKTNV-1" vertex="1">
          <mxGeometry x="210" y="310" width="160" height="240" as="geometry">
            <mxRectangle x="230" y="140" width="160" height="26" as="alternateBounds" />
          </mxGeometry>
        </mxCell>
        <mxCell id="1BcwRWp8ktFDCWVkO0B7-1" value="CondicoesEspeciais" style="text;align=left;verticalAlign=top;spacingLeft=4;spacingRight=4;overflow=hidden;rotatable=0;points=[[0,0.5],[1,0.5]];portConstraint=eastwest;" parent="1BcwRWp8ktFDCWVkO0B7-0" vertex="1">
          <mxGeometry y="26" width="160" height="26" as="geometry" />
        </mxCell>
        <mxCell id="1BcwRWp8ktFDCWVkO0B7-2" value="DataEfetivacao" style="text;align=left;verticalAlign=top;spacingLeft=4;spacingRight=4;overflow=hidden;rotatable=0;points=[[0,0.5],[1,0.5]];portConstraint=eastwest;rounded=0;shadow=0;html=0;" parent="1BcwRWp8ktFDCWVkO0B7-0" vertex="1">
          <mxGeometry y="52" width="160" height="26" as="geometry" />
        </mxCell>
        <mxCell id="1BcwRWp8ktFDCWVkO0B7-3" value="ID" style="text;align=left;verticalAlign=top;spacingLeft=4;spacingRight=4;overflow=hidden;rotatable=0;points=[[0,0.5],[1,0.5]];portConstraint=eastwest;rounded=0;shadow=0;html=0;" parent="1BcwRWp8ktFDCWVkO0B7-0" vertex="1">
          <mxGeometry y="78" width="160" height="26" as="geometry" />
        </mxCell>
        <mxCell id="1BcwRWp8ktFDCWVkO0B7-6" value="DataCancelamento" style="text;align=left;verticalAlign=top;spacingLeft=4;spacingRight=4;overflow=hidden;rotatable=0;points=[[0,0.5],[1,0.5]];portConstraint=eastwest;rounded=0;shadow=0;html=0;" parent="1BcwRWp8ktFDCWVkO0B7-0" vertex="1">
          <mxGeometry y="104" width="160" height="26" as="geometry" />
        </mxCell>
        <mxCell id="1BcwRWp8ktFDCWVkO0B7-4" value="" style="line;html=1;strokeWidth=1;align=left;verticalAlign=middle;spacingTop=-1;spacingLeft=3;spacingRight=3;rotatable=0;labelPosition=right;points=[];portConstraint=eastwest;" parent="1BcwRWp8ktFDCWVkO0B7-0" vertex="1">
          <mxGeometry y="130" width="160" height="8" as="geometry" />
        </mxCell>
        <mxCell id="1BcwRWp8ktFDCWVkO0B7-10" value="CriarNovoSeguro" style="text;html=1;align=center;verticalAlign=middle;resizable=0;points=[];autosize=1;strokeColor=none;fillColor=none;" parent="1BcwRWp8ktFDCWVkO0B7-0" vertex="1">
          <mxGeometry y="138" width="160" height="30" as="geometry" />
        </mxCell>
        <mxCell id="1BcwRWp8ktFDCWVkO0B7-11" value="CancelarSeguro" style="text;html=1;align=center;verticalAlign=middle;resizable=0;points=[];autosize=1;strokeColor=none;fillColor=none;" parent="1BcwRWp8ktFDCWVkO0B7-0" vertex="1">
          <mxGeometry y="168" width="160" height="30" as="geometry" />
        </mxCell>
        <mxCell id="1BcwRWp8ktFDCWVkO0B7-12" value="ImprimirDados" style="text;html=1;align=center;verticalAlign=middle;resizable=0;points=[];autosize=1;strokeColor=none;fillColor=none;" parent="1BcwRWp8ktFDCWVkO0B7-0" vertex="1">
          <mxGeometry y="198" width="160" height="30" as="geometry" />
        </mxCell>
        <mxCell id="1BcwRWp8ktFDCWVkO0B7-7" value="Relation" style="endArrow=open;html=1;endSize=12;startArrow=diamondThin;startSize=14;startFill=0;edgeStyle=orthogonalEdgeStyle;rounded=0;entryX=0.5;entryY=1;entryDx=0;entryDy=0;" parent="WIyWlLk6GJQsqaUBKTNV-1" target="zkfFHV4jXpPFQw0GAbJ--0" edge="1">
          <mxGeometry relative="1" as="geometry">
            <mxPoint x="290" y="290" as="sourcePoint" />
            <mxPoint x="680" y="360" as="targetPoint" />
          </mxGeometry>
        </mxCell>
        <mxCell id="1BcwRWp8ktFDCWVkO0B7-8" value="0..n" style="edgeLabel;resizable=0;html=1;align=left;verticalAlign=top;" parent="1BcwRWp8ktFDCWVkO0B7-7" connectable="0" vertex="1">
          <mxGeometry x="-1" relative="1" as="geometry" />
        </mxCell>
        <mxCell id="1BcwRWp8ktFDCWVkO0B7-9" value="1" style="edgeLabel;resizable=0;html=1;align=right;verticalAlign=top;" parent="1BcwRWp8ktFDCWVkO0B7-7" connectable="0" vertex="1">
          <mxGeometry x="1" relative="1" as="geometry" />
        </mxCell>
      </root>
    </mxGraphModel>
  </diagram>
  <diagram id="hu05SrvkqwwJ3rGVpUUR" name="Retry">
    <mxGraphModel dx="1413" dy="814" grid="1" gridSize="10" guides="1" tooltips="1" connect="1" arrows="1" fold="1" page="1" pageScale="1" pageWidth="1169" pageHeight="827" math="0" shadow="0">
      <root>
        <mxCell id="0" />
        <mxCell id="1" parent="0" />
        <mxCell id="xZybJH6deIL0fOdNdKFY-7" value="200" style="edgeStyle=orthogonalEdgeStyle;rounded=0;orthogonalLoop=1;jettySize=auto;html=1;entryX=0.972;entryY=0.733;entryDx=0;entryDy=0;entryPerimeter=0;dashed=1;dashPattern=1 2;" edge="1" parent="1" target="xZybJH6deIL0fOdNdKFY-2">
          <mxGeometry relative="1" as="geometry">
            <mxPoint x="660" y="170" as="sourcePoint" />
            <mxPoint x="192" y="170" as="targetPoint" />
            <Array as="points">
              <mxPoint x="660" y="171" />
              <mxPoint x="603" y="171" />
              <mxPoint x="603" y="174" />
            </Array>
          </mxGeometry>
        </mxCell>
        <mxCell id="xZybJH6deIL0fOdNdKFY-1" value="Servico de Terceiro" style="image;aspect=fixed;html=1;points=[];align=center;fontSize=12;image=img/lib/azure2/iot/Function_Apps.svg;" vertex="1" parent="1">
          <mxGeometry x="660" y="130" width="68" height="60" as="geometry" />
        </mxCell>
        <mxCell id="xZybJH6deIL0fOdNdKFY-6" style="edgeStyle=orthogonalEdgeStyle;rounded=0;orthogonalLoop=1;jettySize=auto;html=1;entryX=-0.009;entryY=0.487;entryDx=0;entryDy=0;entryPerimeter=0;" edge="1" parent="1" source="xZybJH6deIL0fOdNdKFY-2" target="xZybJH6deIL0fOdNdKFY-1">
          <mxGeometry relative="1" as="geometry" />
        </mxCell>
        <mxCell id="xZybJH6deIL0fOdNdKFY-8" value="200" style="edgeStyle=orthogonalEdgeStyle;rounded=0;orthogonalLoop=1;jettySize=auto;html=1;dashed=1;dashPattern=1 2;exitX=-0.002;exitY=0.717;exitDx=0;exitDy=0;exitPerimeter=0;" edge="1" parent="1" source="xZybJH6deIL0fOdNdKFY-2">
          <mxGeometry relative="1" as="geometry">
            <mxPoint x="200" y="171" as="targetPoint" />
            <mxPoint x="480" y="171" as="sourcePoint" />
          </mxGeometry>
        </mxCell>
        <mxCell id="xZybJH6deIL0fOdNdKFY-2" value="API" style="image;aspect=fixed;html=1;points=[];align=center;fontSize=12;image=img/lib/azure2/integration/API_Management_Services.svg;" vertex="1" parent="1">
          <mxGeometry x="460" y="130" width="65" height="60" as="geometry" />
        </mxCell>
        <mxCell id="xZybJH6deIL0fOdNdKFY-17" value="202" style="edgeStyle=orthogonalEdgeStyle;rounded=0;orthogonalLoop=1;jettySize=auto;html=1;dashed=1;dashPattern=8 8;" edge="1" parent="1">
          <mxGeometry relative="1" as="geometry">
            <mxPoint x="343" y="291" as="sourcePoint" />
            <mxPoint x="212" y="291" as="targetPoint" />
            <Array as="points">
              <mxPoint x="240" y="291" />
              <mxPoint x="240" y="291" />
            </Array>
          </mxGeometry>
        </mxCell>
        <mxCell id="xZybJH6deIL0fOdNdKFY-19" style="edgeStyle=orthogonalEdgeStyle;rounded=0;orthogonalLoop=1;jettySize=auto;html=1;entryX=-0.016;entryY=0.515;entryDx=0;entryDy=0;entryPerimeter=0;" edge="1" parent="1" source="xZybJH6deIL0fOdNdKFY-3" target="xZybJH6deIL0fOdNdKFY-18">
          <mxGeometry relative="1" as="geometry" />
        </mxCell>
        <mxCell id="xZybJH6deIL0fOdNdKFY-3" value="Service Bus" style="image;aspect=fixed;html=1;points=[];align=center;fontSize=12;image=img/lib/azure2/integration/Service_Bus.svg;" vertex="1" parent="1">
          <mxGeometry x="343" y="254" width="68" height="60" as="geometry" />
        </mxCell>
        <mxCell id="xZybJH6deIL0fOdNdKFY-5" style="edgeStyle=orthogonalEdgeStyle;rounded=0;orthogonalLoop=1;jettySize=auto;html=1;" edge="1" parent="1" source="xZybJH6deIL0fOdNdKFY-4" target="xZybJH6deIL0fOdNdKFY-2">
          <mxGeometry relative="1" as="geometry" />
        </mxCell>
        <mxCell id="xZybJH6deIL0fOdNdKFY-4" value="Worker" style="image;aspect=fixed;html=1;points=[];align=center;fontSize=12;image=img/lib/azure2/compute/Cloud_Services_Classic.svg;" vertex="1" parent="1">
          <mxGeometry x="120" y="134" width="72" height="52" as="geometry" />
        </mxCell>
        <mxCell id="xZybJH6deIL0fOdNdKFY-22" style="edgeStyle=orthogonalEdgeStyle;rounded=0;orthogonalLoop=1;jettySize=auto;html=1;dashed=1;dashPattern=1 1;" edge="1" parent="1">
          <mxGeometry relative="1" as="geometry">
            <mxPoint x="880" y="304" as="sourcePoint" />
            <mxPoint x="775" y="304" as="targetPoint" />
          </mxGeometry>
        </mxCell>
        <mxCell id="xZybJH6deIL0fOdNdKFY-10" value="Servico de Terceiro" style="image;aspect=fixed;html=1;points=[];align=center;fontSize=12;image=img/lib/azure2/iot/Function_Apps.svg;" vertex="1" parent="1">
          <mxGeometry x="880" y="254" width="68" height="60" as="geometry" />
        </mxCell>
        <mxCell id="xZybJH6deIL0fOdNdKFY-21" style="edgeStyle=orthogonalEdgeStyle;rounded=0;orthogonalLoop=1;jettySize=auto;html=1;" edge="1" parent="1" source="xZybJH6deIL0fOdNdKFY-13" target="xZybJH6deIL0fOdNdKFY-10">
          <mxGeometry relative="1" as="geometry" />
        </mxCell>
        <mxCell id="xZybJH6deIL0fOdNdKFY-23" style="edgeStyle=orthogonalEdgeStyle;rounded=0;orthogonalLoop=1;jettySize=auto;html=1;dashed=1;dashPattern=1 1;" edge="1" parent="1">
          <mxGeometry relative="1" as="geometry">
            <mxPoint x="570" y="303" as="targetPoint" />
            <mxPoint x="710" y="303" as="sourcePoint" />
          </mxGeometry>
        </mxCell>
        <mxCell id="xZybJH6deIL0fOdNdKFY-13" value="API" style="image;aspect=fixed;html=1;points=[];align=center;fontSize=12;image=img/lib/azure2/integration/API_Management_Services.svg;" vertex="1" parent="1">
          <mxGeometry x="710" y="254" width="65" height="60" as="geometry" />
        </mxCell>
        <mxCell id="xZybJH6deIL0fOdNdKFY-16" style="edgeStyle=orthogonalEdgeStyle;rounded=0;orthogonalLoop=1;jettySize=auto;html=1;entryX=0.147;entryY=0.433;entryDx=0;entryDy=0;entryPerimeter=0;" edge="1" parent="1" source="xZybJH6deIL0fOdNdKFY-15" target="xZybJH6deIL0fOdNdKFY-3">
          <mxGeometry relative="1" as="geometry" />
        </mxCell>
        <mxCell id="xZybJH6deIL0fOdNdKFY-15" value="Worker" style="image;aspect=fixed;html=1;points=[];align=center;fontSize=12;image=img/lib/azure2/compute/Cloud_Services_Classic.svg;" vertex="1" parent="1">
          <mxGeometry x="140" y="254" width="72" height="52" as="geometry" />
        </mxCell>
        <mxCell id="xZybJH6deIL0fOdNdKFY-20" style="edgeStyle=orthogonalEdgeStyle;rounded=0;orthogonalLoop=1;jettySize=auto;html=1;" edge="1" parent="1" source="xZybJH6deIL0fOdNdKFY-18" target="xZybJH6deIL0fOdNdKFY-13">
          <mxGeometry relative="1" as="geometry" />
        </mxCell>
        <mxCell id="xZybJH6deIL0fOdNdKFY-24" style="edgeStyle=orthogonalEdgeStyle;rounded=0;orthogonalLoop=1;jettySize=auto;html=1;dashed=1;dashPattern=1 1;" edge="1" parent="1">
          <mxGeometry relative="1" as="geometry">
            <mxPoint x="410" y="302" as="targetPoint" />
            <mxPoint x="500" y="302" as="sourcePoint" />
          </mxGeometry>
        </mxCell>
        <mxCell id="xZybJH6deIL0fOdNdKFY-18" value="Função Callback&lt;br&gt;" style="image;aspect=fixed;html=1;points=[];align=center;fontSize=12;image=img/lib/azure2/iot/Function_Apps.svg;" vertex="1" parent="1">
          <mxGeometry x="500" y="254" width="68" height="60" as="geometry" />
        </mxCell>
      </root>
    </mxGraphModel>
  </diagram>
  <diagram id="FY7K_matb6f8ugyNqqFh" name="ArquiteturaResilenteNoAzure">
    <mxGraphModel dx="969" dy="558" grid="1" gridSize="10" guides="1" tooltips="1" connect="1" arrows="1" fold="1" page="1" pageScale="1" pageWidth="1169" pageHeight="827" math="0" shadow="0">
      <root>
        <mxCell id="0" />
        <mxCell id="1" parent="0" />
        <mxCell id="qVDO3z5oa2ZEtZtTnrh2-8" value="" style="rounded=0;whiteSpace=wrap;html=1;" vertex="1" parent="1">
          <mxGeometry x="153" y="190" width="587" height="260" as="geometry" />
        </mxCell>
        <mxCell id="qVDO3z5oa2ZEtZtTnrh2-3" style="edgeStyle=orthogonalEdgeStyle;rounded=0;orthogonalLoop=1;jettySize=auto;html=1;entryX=0.006;entryY=0.475;entryDx=0;entryDy=0;entryPerimeter=0;" edge="1" parent="1" source="qVDO3z5oa2ZEtZtTnrh2-1" target="qVDO3z5oa2ZEtZtTnrh2-2">
          <mxGeometry relative="1" as="geometry" />
        </mxCell>
        <mxCell id="qVDO3z5oa2ZEtZtTnrh2-1" value="APIM" style="image;aspect=fixed;html=1;points=[];align=center;fontSize=12;image=img/lib/azure2/integration/API_Management_Services.svg;" vertex="1" parent="1">
          <mxGeometry x="180" y="249" width="65" height="60" as="geometry" />
        </mxCell>
        <mxCell id="qVDO3z5oa2ZEtZtTnrh2-5" style="edgeStyle=orthogonalEdgeStyle;rounded=0;orthogonalLoop=1;jettySize=auto;html=1;entryX=0.021;entryY=0.491;entryDx=0;entryDy=0;entryPerimeter=0;" edge="1" parent="1" source="qVDO3z5oa2ZEtZtTnrh2-2" target="qVDO3z5oa2ZEtZtTnrh2-4">
          <mxGeometry relative="1" as="geometry" />
        </mxCell>
        <mxCell id="qVDO3z5oa2ZEtZtTnrh2-2" value="FunctionApp" style="image;aspect=fixed;html=1;points=[];align=center;fontSize=12;image=img/lib/azure2/iot/Function_Apps.svg;" vertex="1" parent="1">
          <mxGeometry x="340" y="250" width="68" height="60" as="geometry" />
        </mxCell>
        <mxCell id="qVDO3z5oa2ZEtZtTnrh2-4" value="EventHub" style="image;aspect=fixed;html=1;points=[];align=center;fontSize=12;image=img/lib/azure2/iot/Event_Hubs.svg;" vertex="1" parent="1">
          <mxGeometry x="480" y="250" width="67" height="60" as="geometry" />
        </mxCell>
        <mxCell id="qVDO3z5oa2ZEtZtTnrh2-7" style="edgeStyle=orthogonalEdgeStyle;rounded=0;orthogonalLoop=1;jettySize=auto;html=1;" edge="1" parent="1" source="qVDO3z5oa2ZEtZtTnrh2-6" target="qVDO3z5oa2ZEtZtTnrh2-4">
          <mxGeometry relative="1" as="geometry" />
        </mxCell>
        <mxCell id="qVDO3z5oa2ZEtZtTnrh2-6" value="LogicApp" style="image;aspect=fixed;html=1;points=[];align=center;fontSize=12;image=img/lib/azure2/internet_of_things/Logic_Apps.svg;" vertex="1" parent="1">
          <mxGeometry x="640" y="246" width="68" height="68" as="geometry" />
        </mxCell>
        <mxCell id="qVDO3z5oa2ZEtZtTnrh2-9" value="Monitor" style="image;aspect=fixed;html=1;points=[];align=center;fontSize=12;image=img/lib/azure2/monitor/SAP_Azure_Monitor.svg;" vertex="1" parent="1">
          <mxGeometry x="220" y="420" width="70" height="56.00000000000001" as="geometry" />
        </mxCell>
        <mxCell id="qVDO3z5oa2ZEtZtTnrh2-10" value="Dashboard" style="image;aspect=fixed;html=1;points=[];align=center;fontSize=12;image=img/lib/azure2/general/Dashboard.svg;" vertex="1" parent="1">
          <mxGeometry x="380" y="428" width="68" height="48" as="geometry" />
        </mxCell>
      </root>
    </mxGraphModel>
  </diagram>
</mxfile>
